<svg xmlns="http://www.w3.org/2000/svg" height="180" width="180" class="pyqrcode"><path transform="scale(4)" stroke="black" class="pyqrline" d="M4 4.5h7m3 0h1m1 0h3m3 0h2m1 0h2m1 0h2m4 0h7m-37 1h1m5 0h1m3 0h2m3 0h4m4 0h3m4 0h1m5 0h1m-37 1h1m1 0h3m1 0h1m1 0h1m2 0h7m1 0h1m3 0h6m1 0h1m1 0h3m1 0h1m-37 1h1m1 0h3m1 0h1m1 0h1m1 0h1m2 0h2m2 0h2m1 0h1m4 0h2m1 0h1m1 0h1m1 0h3m1 0h1m-37 1h1m1 0h3m1 0h1m3 0h1m1 0h2m1 0h3m1 0h2m3 0h1m1 0h1m3 0h1m1 0h3m1 0h1m-37 1h1m5 0h1m4 0h1m2 0h4m4 0h2m2 0h1m3 0h1m5 0h1m-37 1h7m1 0h1m1 0h1m1 0h1m1 0h1m1 0h1m1 0h1m1 0h1m1 0h1m1 0h1m1 0h1m1 0h1m1 0h7m-28 1h1m1 0h1m1 0h1m1 0h2m2 0h1m3 0h6m-26 1h2m1 0h2m3 0h4m2 0h3m1 0h4m1 0h1m1 0h1m4 0h2m-34 1h1m1 0h1m1 0h1m1 0h1m1 0h2m2 0h1m1 0h1m1 0h3m2 0h2m1 0h3m1 0h1m1 0h3m-33 1h1m1 0h2m1 0h3m1 0h2m1 0h3m1 0h2m2 0h2m1 0h2m1 0h8m1 0h1m-37 1h1m1 0h1m4 0h2m3 0h1m1 0h2m8 0h1m1 0h2m1 0h2m2 0h2m1 0h1m-35 1h1m3 0h1m5 0h3m2 0h1m1 0h3m1 0h2m3 0h1m1 0h2m1 0h1m2 0h1m-37 1h3m1 0h2m1 0h2m1 0h4m1 0h1m1 0h1m1 0h7m1 0h3m2 0h1m1 0h1m-35 1h1m1 0h1m1 0h1m1 0h2m1 0h1m1 0h1m3 0h1m6 0h2m3 0h1m2 0h1m1 0h5m-37 1h1m2 0h1m5 0h2m1 0h3m2 0h1m2 0h4m2 0h3m2 0h1m1 0h2m1 0h1m-35 1h1m1 0h1m1 0h1m1 0h1m2 0h1m3 0h1m3 0h1m1 0h1m3 0h1m2 0h1m1 0h2m2 0h3m-37 1h2m3 0h1m1 0h1m1 0h3m1 0h1m1 0h1m4 0h1m1 0h2m1 0h1m1 0h1m1 0h1m1 0h1m3 0h1m-35 1h2m2 0h5m1 0h1m4 0h1m1 0h1m2 0h2m1 0h2m1 0h1m6 0h1m1 0h1m-35 1h1m1 0h2m2 0h4m1 0h1m2 0h6m2 0h2m1 0h4m-31 1h3m3 0h2m1 0h4m1 0h4m5 0h1m2 0h1m1 0h3m1 0h2m-33 1h5m1 0h1m1 0h1m1 0h1m1 0h2m1 0h1m1 0h1m1 0h5m2 0h2m2 0h2m1 0h1m-33 1h3m1 0h1m2 0h1m2 0h1m2 0h1m2 0h1m3 0h1m1 0h1m2 0h1m1 0h2m1 0h1m1 0h1m1 0h1m-36 1h5m3 0h3m2 0h2m1 0h3m4 0h1m1 0h4m1 0h1m1 0h2m-35 1h1m2 0h2m1 0h1m1 0h4m1 0h2m4 0h4m2 0h2m1 0h1m1 0h1m-31 1h3m1 0h2m2 0h1m1 0h1m3 0h1m2 0h1m2 0h1m3 0h5m3 0h2m-34 1h3m3 0h1m1 0h1m1 0h1m3 0h1m3 0h1m2 0h2m2 0h1m1 0h1m2 0h1m3 0h3m-37 1h1m1 0h4m1 0h1m3 0h1m1 0h2m2 0h3m1 0h2m1 0h1m1 0h4m1 0h1m2 0h1m-35 1h1m1 0h7m2 0h1m2 0h1m3 0h1m2 0h1m1 0h3m1 0h9m-28 1h2m1 0h1m1 0h1m1 0h1m1 0h3m1 0h1m3 0h2m1 0h1m3 0h3m-35 1h7m1 0h1m2 0h1m1 0h2m1 0h3m1 0h1m1 0h3m3 0h1m1 0h1m1 0h3m1 0h1m-37 1h1m5 0h1m3 0h1m6 0h1m3 0h1m3 0h1m1 0h2m3 0h2m1 0h2m-37 1h1m1 0h3m1 0h1m1 0h3m3 0h2m2 0h4m1 0h2m1 0h7m-33 1h1m1 0h3m1 0h1m1 0h1m2 0h2m2 0h3m3 0h2m3 0h3m1 0h1m2 0h1m-34 1h1m1 0h3m1 0h1m2 0h3m1 0h1m5 0h3m2 0h1m1 0h2m4 0h5m-37 1h1m5 0h1m2 0h5m2 0h1m1 0h2m1 0h1m8 0h1m2 0h4m-37 1h7m2 0h3m1 0h1m1 0h1m4 0h1m1 0h1m1 0h1m2 0h2m3 0h2m2 0h1"/><circle cy="90" cx="90" r="27.900" fill="white"/><circle cy="90" cx="90" r="25.200" fill="#009ddc"/><circle cy="90" cx="90" r="20.160" fill="white"/><circle cy="79.080" cx="86.869" r="5.422" fill="#009ddc"/><circle cy="100.920" cx="86.869" r="5.422" fill="#009ddc"/><circle cy="90" cx="97.713" r="5.422" fill="#009ddc"/></svg>